<?xml version="1.0" encoding="utf-8" standalone="no"?>
<!DOCTYPE svg PUBLIC "-//W3C//DTD SVG 1.1//EN"
  "http://www.w3.org/Graphics/SVG/1.1/DTD/svg11.dtd">
<svg xmlns:xlink="http://www.w3.org/1999/xlink" width="424.259232pt" height="313.26025pt" viewBox="0 0 424.259232 313.26025" xmlns="http://www.w3.org/2000/svg" version="1.1">
 <metadata>
  <rdf:RDF xmlns:dc="http://purl.org/dc/elements/1.1/" xmlns:cc="http://creativecommons.org/ns#" xmlns:rdf="http://www.w3.org/1999/02/22-rdf-syntax-ns#">
   <cc:Work>
    <dc:type rdf:resource="http://purl.org/dc/dcmitype/StillImage"/>
    <dc:date>2026-07-06T10:56:46.955680</dc:date>
    <dc:format>image/svg+xml</dc:format>
    <dc:creator>
     <cc:Agent>
      <dc:title>Matplotlib v3.10.8, https://matplotlib.org/</dc:title>
     </cc:Agent>
    </dc:creator>
   </cc:Work>
  </rdf:RDF>
 </metadata>
 <defs>
  <style type="text/css">*{stroke-linejoin: round; stroke-linecap: butt}</style>
 </defs>
 <g id="figure_1">
  <g id="patch_1">
   <path d="M -0 313.26025 
L 424.259232 313.26025 
L 424.259232 0 
L -0 0 
z
" style="fill: #ffffff"/>
  </g>
  <g id="axes_1">
   <g id="patch_2">
    <path d="M 43.78125 275.704 
L 413.497614 275.704 
L 413.497614 64.61025 
L 43.78125 64.61025 
z
" style="fill: #ffffff"/>
   </g>
   <g id="FillBetweenPolyCollection_1">
    <defs>
     <path id="m210096f6da" d="M 60.586539 -244.590505 
L 60.586539 -244.590505 
L 72.723693 -244.590505 
L 72.723693 -165.966454 
L 75.057761 -165.966454 
L 75.057761 -156.075649 
L 89.762389 -156.075649 
L 89.762389 -156.075649 
L 90.229202 -156.075649 
L 90.229202 -140.648185 
L 93.263491 -140.648185 
L 93.263491 -140.648185 
L 112.869661 -140.648185 
L 112.869661 -140.648185 
L 116.60417 -140.648185 
L 116.60417 -140.648185 
L 117.537797 -140.648185 
L 117.537797 -140.648185 
L 117.771204 -140.648185 
L 117.771204 -140.648185 
L 132.475832 -140.648185 
L 132.475832 -140.648185 
L 164.919377 -140.648185 
L 164.919377 -140.648185 
L 165.152783 -140.648185 
L 165.152783 -140.648185 
L 246.845162 -140.648185 
L 246.845162 -140.648185 
L 263.883858 -140.648185 
L 263.883858 -44.500354 
L 274.387164 -44.500354 
L 274.387164 -44.500354 
L 274.387164 -207.732214 
L 274.387164 -207.732214 
L 274.387164 -207.732214 
L 263.883858 -207.732214 
L 263.883858 -230.152928 
L 246.845162 -230.152928 
L 246.845162 -230.152928 
L 165.152783 -230.152928 
L 165.152783 -230.152928 
L 164.919377 -230.152928 
L 164.919377 -230.152928 
L 132.475832 -230.152928 
L 132.475832 -230.152928 
L 117.771204 -230.152928 
L 117.771204 -230.152928 
L 117.537797 -230.152928 
L 117.537797 -230.152928 
L 116.60417 -230.152928 
L 116.60417 -230.152928 
L 112.869661 -230.152928 
L 112.869661 -230.152928 
L 93.263491 -230.152928 
L 93.263491 -230.152928 
L 90.229202 -230.152928 
L 90.229202 -237.462944 
L 89.762389 -237.462944 
L 89.762389 -237.462944 
L 75.057761 -237.462944 
L 75.057761 -242.628193 
L 72.723693 -242.628193 
L 72.723693 -244.590505 
L 60.586539 -244.590505 
z
" style="stroke: #4c72b0; stroke-opacity: 0.15"/>
    </defs>
    <g clip-path="url(#p45eca5f691)">
     <use xlink:href="#m210096f6da" x="0" y="313.26025" style="fill: #4c72b0; fill-opacity: 0.15; stroke: #4c72b0; stroke-opacity: 0.15"/>
    </g>
   </g>
   <g id="FillBetweenPolyCollection_2">
    <defs>
     <path id="m95c591147d" d="M 60.586539 -242.251981 
L 60.586539 -223.190087 
L 60.817612 -223.190087 
L 60.817612 -223.190087 
L 63.111924 -223.190087 
L 63.111924 -223.190087 
L 71.790065 -223.190087 
L 71.790065 -223.190087 
L 72.490286 -223.190087 
L 72.490286 -218.426917 
L 73.423913 -218.426917 
L 73.423913 -214.11805 
L 73.65732 -214.11805 
L 73.65732 -209.939628 
L 73.890727 -209.939628 
L 73.890727 -205.829778 
L 74.590947 -205.829778 
L 74.590947 -205.829778 
L 74.824354 -205.829778 
L 74.824354 -205.829778 
L 75.291167 -205.829778 
L 75.291167 -205.829778 
L 75.524574 -205.829778 
L 75.524574 -201.528233 
L 76.458201 -201.528233 
L 76.458201 -201.528233 
L 77.158422 -201.528233 
L 77.158422 -197.259108 
L 85.32766 -197.259108 
L 85.32766 -197.259108 
L 86.961507 -197.259108 
L 86.961507 -197.259108 
L 88.361948 -197.259108 
L 88.361948 -192.745273 
L 89.062168 -192.745273 
L 89.062168 -188.372134 
L 89.528982 -188.372134 
L 89.528982 -188.372134 
L 89.995795 -188.372134 
L 89.995795 -188.372134 
L 90.696016 -188.372134 
L 90.696016 -188.372134 
L 99.332067 -188.372134 
L 99.332067 -188.372134 
L 100.265694 -188.372134 
L 100.265694 -188.372134 
L 101.899542 -188.372134 
L 101.899542 -188.372134 
L 103.299983 -188.372134 
L 103.299983 -188.372134 
L 104.000203 -188.372134 
L 104.000203 -188.372134 
L 104.93383 -188.372134 
L 104.93383 -188.372134 
L 108.668339 -188.372134 
L 108.668339 -188.372134 
L 114.036695 -188.372134 
L 114.036695 -182.16344 
L 114.503509 -182.16344 
L 114.503509 -182.16344 
L 118.704831 -182.16344 
L 118.704831 -182.16344 
L 119.871865 -182.16344 
L 119.871865 -182.16344 
L 125.707035 -182.16344 
L 125.707035 -175.477759 
L 125.940442 -175.477759 
L 125.940442 -175.477759 
L 129.908357 -175.477759 
L 129.908357 -168.170867 
L 143.679358 -168.170867 
L 143.679358 -168.170867 
L 145.78002 -168.170867 
L 145.78002 -160.892157 
L 146.246833 -160.892157 
L 146.246833 -160.892157 
L 146.713647 -160.892157 
L 146.713647 -160.892157 
L 147.413867 -160.892157 
L 147.413867 -153.136522 
L 147.880681 -153.136522 
L 147.880681 -145.779267 
L 151.615189 -145.779267 
L 151.615189 -145.779267 
L 152.082003 -145.779267 
L 152.082003 -145.779267 
L 156.983546 -145.779267 
L 156.983546 -145.779267 
L 160.251241 -145.779267 
L 160.251241 -137.128047 
L 160.484648 -137.128047 
L 160.484648 -137.128047 
L 164.219156 -137.128047 
L 164.219156 -128.285355 
L 165.38619 -128.285355 
L 165.38619 -119.953644 
L 166.786631 -119.953644 
L 166.786631 -112.051812 
L 171.454767 -112.051812 
L 171.454767 -104.526166 
L 172.621801 -104.526166 
L 172.621801 -97.341247 
L 175.656089 -97.341247 
L 175.656089 -90.474642 
L 179.857412 -90.474642 
L 179.857412 -90.474642 
L 188.260056 -90.474642 
L 188.260056 -82.998175 
L 204.598532 -82.998175 
L 204.598532 -75.975824 
L 225.605144 -75.975824 
L 225.605144 -75.975824 
L 255.481213 -75.975824 
L 255.481213 -75.975824 
L 266.451333 -75.975824 
L 266.451333 -75.975824 
L 268.318587 -75.975824 
L 268.318587 -75.975824 
L 295.160368 -75.975824 
L 295.160368 -75.975824 
L 301.228945 -75.975824 
L 301.228945 -53.401493 
L 310.798624 -53.401493 
L 310.798624 -53.401493 
L 322.00215 -53.401493 
L 322.00215 -53.401493 
L 322.00215 -132.351065 
L 322.00215 -132.351065 
L 322.00215 -132.351065 
L 310.798624 -132.351065 
L 310.798624 -132.351065 
L 301.228945 -132.351065 
L 301.228945 -143.261465 
L 295.160368 -143.261465 
L 295.160368 -143.261465 
L 268.318587 -143.261465 
L 268.318587 -143.261465 
L 266.451333 -143.261465 
L 266.451333 -143.261465 
L 255.481213 -143.261465 
L 255.481213 -143.261465 
L 225.605144 -143.261465 
L 225.605144 -143.261465 
L 204.598532 -143.261465 
L 204.598532 -151.132326 
L 188.260056 -151.132326 
L 188.260056 -158.699755 
L 179.857412 -158.699755 
L 179.857412 -158.699755 
L 175.656089 -158.699755 
L 175.656089 -165.609582 
L 172.621801 -165.609582 
L 172.621801 -172.304567 
L 171.454767 -172.304567 
L 171.454767 -178.78211 
L 166.786631 -178.78211 
L 166.786631 -185.034672 
L 165.38619 -185.034672 
L 165.38619 -191.048342 
L 164.219156 -191.048342 
L 164.219156 -196.799903 
L 160.484648 -196.799903 
L 160.484648 -196.799903 
L 160.251241 -196.799903 
L 160.251241 -202.109741 
L 156.983546 -202.109741 
L 156.983546 -202.109741 
L 152.082003 -202.109741 
L 152.082003 -202.109741 
L 151.615189 -202.109741 
L 151.615189 -202.109741 
L 147.880681 -202.109741 
L 147.880681 -206.782039 
L 147.413867 -206.782039 
L 147.413867 -211.26469 
L 146.713647 -211.26469 
L 146.713647 -211.26469 
L 146.246833 -211.26469 
L 146.246833 -211.26469 
L 145.78002 -211.26469 
L 145.78002 -215.356727 
L 143.679358 -215.356727 
L 143.679358 -215.356727 
L 129.908357 -215.356727 
L 129.908357 -219.180443 
L 125.940442 -219.180443 
L 125.940442 -219.180443 
L 125.707035 -219.180443 
L 125.707035 -222.62236 
L 119.871865 -222.62236 
L 119.871865 -222.62236 
L 118.704831 -222.62236 
L 118.704831 -222.62236 
L 114.503509 -222.62236 
L 114.503509 -222.62236 
L 114.036695 -222.62236 
L 114.036695 -225.741751 
L 108.668339 -225.741751 
L 108.668339 -225.741751 
L 104.93383 -225.741751 
L 104.93383 -225.741751 
L 104.000203 -225.741751 
L 104.000203 -225.741751 
L 103.299983 -225.741751 
L 103.299983 -225.741751 
L 101.899542 -225.741751 
L 101.899542 -225.741751 
L 100.265694 -225.741751 
L 100.265694 -225.741751 
L 99.332067 -225.741751 
L 99.332067 -225.741751 
L 90.696016 -225.741751 
L 90.696016 -225.741751 
L 89.995795 -225.741751 
L 89.995795 -225.741751 
L 89.528982 -225.741751 
L 89.528982 -225.741751 
L 89.062168 -225.741751 
L 89.062168 -228.284114 
L 88.361948 -228.284114 
L 88.361948 -230.745022 
L 86.961507 -230.745022 
L 86.961507 -230.745022 
L 85.32766 -230.745022 
L 85.32766 -230.745022 
L 77.158422 -230.745022 
L 77.158422 -233.026339 
L 76.458201 -233.026339 
L 76.458201 -233.026339 
L 75.524574 -233.026339 
L 75.524574 -235.188549 
L 75.291167 -235.188549 
L 75.291167 -235.188549 
L 74.824354 -235.188549 
L 74.824354 -235.188549 
L 74.590947 -235.188549 
L 74.590947 -235.188549 
L 73.890727 -235.188549 
L 73.890727 -237.179029 
L 73.65732 -237.179029 
L 73.65732 -239.035822 
L 73.423913 -239.035822 
L 73.423913 -240.736197 
L 72.490286 -240.736197 
L 72.490286 -242.251981 
L 71.790065 -242.251981 
L 71.790065 -242.251981 
L 63.111924 -242.251981 
L 63.111924 -242.251981 
L 60.817612 -242.251981 
L 60.817612 -242.251981 
L 60.586539 -242.251981 
z
" style="stroke: #c44e52; stroke-opacity: 0.15"/>
    </defs>
    <g clip-path="url(#p45eca5f691)">
     <use xlink:href="#m95c591147d" x="0" y="313.26025" style="fill: #c44e52; fill-opacity: 0.15; stroke: #c44e52; stroke-opacity: 0.15"/>
    </g>
   </g>
   <g id="matplotlib.axis_1">
    <g id="xtick_1">
     <g id="line2d_1">
      <defs>
       <path id="md9059dfcd2" d="M 0 0 
L 0 3.5 
" style="stroke: #000000; stroke-width: 0.8"/>
      </defs>
      <g>
       <use xlink:href="#md9059dfcd2" x="60.586539" y="275.704" style="stroke: #000000; stroke-width: 0.8"/>
      </g>
     </g>
     <g id="text_1">
      <text style="font-size: 10px; font-family: 'DejaVu Sans', 'Bitstream Vera Sans', 'Computer Modern Sans Serif', 'Lucida Grande', 'Verdana', 'Geneva', 'Lucid', 'Arial', 'Helvetica', 'Avant Garde', sans-serif; text-anchor: middle" x="60.586539" y="290.302437" transform="rotate(-0 60.586539 290.302437)">0</text>
     </g>
    </g>
    <g id="xtick_2">
     <g id="line2d_2">
      <g>
       <use xlink:href="#md9059dfcd2" x="130.608578" y="275.704" style="stroke: #000000; stroke-width: 0.8"/>
      </g>
     </g>
     <g id="text_2">
      <text style="font-size: 10px; font-family: 'DejaVu Sans', 'Bitstream Vera Sans', 'Computer Modern Sans Serif', 'Lucida Grande', 'Verdana', 'Geneva', 'Lucid', 'Arial', 'Helvetica', 'Avant Garde', sans-serif; text-anchor: middle" x="130.608578" y="290.302437" transform="rotate(-0 130.608578 290.302437)">10</text>
     </g>
    </g>
    <g id="xtick_3">
     <g id="line2d_3">
      <g>
       <use xlink:href="#md9059dfcd2" x="200.630616" y="275.704" style="stroke: #000000; stroke-width: 0.8"/>
      </g>
     </g>
     <g id="text_3">
      <text style="font-size: 10px; font-family: 'DejaVu Sans', 'Bitstream Vera Sans', 'Computer Modern Sans Serif', 'Lucida Grande', 'Verdana', 'Geneva', 'Lucid', 'Arial', 'Helvetica', 'Avant Garde', sans-serif; text-anchor: middle" x="200.630616" y="290.302437" transform="rotate(-0 200.630616 290.302437)">20</text>
     </g>
    </g>
    <g id="xtick_4">
     <g id="line2d_4">
      <g>
       <use xlink:href="#md9059dfcd2" x="270.652655" y="275.704" style="stroke: #000000; stroke-width: 0.8"/>
      </g>
     </g>
     <g id="text_4">
      <text style="font-size: 10px; font-family: 'DejaVu Sans', 'Bitstream Vera Sans', 'Computer Modern Sans Serif', 'Lucida Grande', 'Verdana', 'Geneva', 'Lucid', 'Arial', 'Helvetica', 'Avant Garde', sans-serif; text-anchor: middle" x="270.652655" y="290.302437" transform="rotate(-0 270.652655 290.302437)">30</text>
     </g>
    </g>
    <g id="xtick_5">
     <g id="line2d_5">
      <g>
       <use xlink:href="#md9059dfcd2" x="340.674694" y="275.704" style="stroke: #000000; stroke-width: 0.8"/>
      </g>
     </g>
     <g id="text_5">
      <text style="font-size: 10px; font-family: 'DejaVu Sans', 'Bitstream Vera Sans', 'Computer Modern Sans Serif', 'Lucida Grande', 'Verdana', 'Geneva', 'Lucid', 'Arial', 'Helvetica', 'Avant Garde', sans-serif; text-anchor: middle" x="340.674694" y="290.302437" transform="rotate(-0 340.674694 290.302437)">40</text>
     </g>
    </g>
    <g id="xtick_6">
     <g id="line2d_6">
      <g>
       <use xlink:href="#md9059dfcd2" x="410.696732" y="275.704" style="stroke: #000000; stroke-width: 0.8"/>
      </g>
     </g>
     <g id="text_6">
      <text style="font-size: 10px; font-family: 'DejaVu Sans', 'Bitstream Vera Sans', 'Computer Modern Sans Serif', 'Lucida Grande', 'Verdana', 'Geneva', 'Lucid', 'Arial', 'Helvetica', 'Avant Garde', sans-serif; text-anchor: middle" x="410.696732" y="290.302437" transform="rotate(-0 410.696732 290.302437)">50</text>
     </g>
    </g>
    <g id="text_7">
     <text style="font-size: 10px; font-family: 'DejaVu Sans', 'Bitstream Vera Sans', 'Computer Modern Sans Serif', 'Lucida Grande', 'Verdana', 'Geneva', 'Lucid', 'Arial', 'Helvetica', 'Avant Garde', sans-serif; text-anchor: middle" x="228.639432" y="303.980562" transform="rotate(-0 228.639432 303.980562)">Months</text>
    </g>
   </g>
   <g id="matplotlib.axis_2">
    <g id="ytick_1">
     <g id="line2d_7">
      <defs>
       <path id="m587de949b7" d="M 0 0 
L -3.5 0 
" style="stroke: #000000; stroke-width: 0.8"/>
      </defs>
      <g>
       <use xlink:href="#m587de949b7" x="43.78125" y="271.644505" style="stroke: #000000; stroke-width: 0.8"/>
      </g>
     </g>
     <g id="text_8">
      <text style="font-size: 10px; font-family: 'DejaVu Sans', 'Bitstream Vera Sans', 'Computer Modern Sans Serif', 'Lucida Grande', 'Verdana', 'Geneva', 'Lucid', 'Arial', 'Helvetica', 'Avant Garde', sans-serif; text-anchor: end" x="36.78125" y="275.443724" transform="rotate(-0 36.78125 275.443724)">0.0</text>
     </g>
    </g>
    <g id="ytick_2">
     <g id="line2d_8">
      <g>
       <use xlink:href="#m587de949b7" x="43.78125" y="231.049553" style="stroke: #000000; stroke-width: 0.8"/>
      </g>
     </g>
     <g id="text_9">
      <text style="font-size: 10px; font-family: 'DejaVu Sans', 'Bitstream Vera Sans', 'Computer Modern Sans Serif', 'Lucida Grande', 'Verdana', 'Geneva', 'Lucid', 'Arial', 'Helvetica', 'Avant Garde', sans-serif; text-anchor: end" x="36.78125" y="234.848772" transform="rotate(-0 36.78125 234.848772)">0.2</text>
     </g>
    </g>
    <g id="ytick_3">
     <g id="line2d_9">
      <g>
       <use xlink:href="#m587de949b7" x="43.78125" y="190.454601" style="stroke: #000000; stroke-width: 0.8"/>
      </g>
     </g>
     <g id="text_10">
      <text style="font-size: 10px; font-family: 'DejaVu Sans', 'Bitstream Vera Sans', 'Computer Modern Sans Serif', 'Lucida Grande', 'Verdana', 'Geneva', 'Lucid', 'Arial', 'Helvetica', 'Avant Garde', sans-serif; text-anchor: end" x="36.78125" y="194.25382" transform="rotate(-0 36.78125 194.25382)">0.4</text>
     </g>
    </g>
    <g id="ytick_4">
     <g id="line2d_10">
      <g>
       <use xlink:href="#m587de949b7" x="43.78125" y="149.859649" style="stroke: #000000; stroke-width: 0.8"/>
      </g>
     </g>
     <g id="text_11">
      <text style="font-size: 10px; font-family: 'DejaVu Sans', 'Bitstream Vera Sans', 'Computer Modern Sans Serif', 'Lucida Grande', 'Verdana', 'Geneva', 'Lucid', 'Arial', 'Helvetica', 'Avant Garde', sans-serif; text-anchor: end" x="36.78125" y="153.658868" transform="rotate(-0 36.78125 153.658868)">0.6</text>
     </g>
    </g>
    <g id="ytick_5">
     <g id="line2d_11">
      <g>
       <use xlink:href="#m587de949b7" x="43.78125" y="109.264697" style="stroke: #000000; stroke-width: 0.8"/>
      </g>
     </g>
     <g id="text_12">
      <text style="font-size: 10px; font-family: 'DejaVu Sans', 'Bitstream Vera Sans', 'Computer Modern Sans Serif', 'Lucida Grande', 'Verdana', 'Geneva', 'Lucid', 'Arial', 'Helvetica', 'Avant Garde', sans-serif; text-anchor: end" x="36.78125" y="113.063916" transform="rotate(-0 36.78125 113.063916)">0.8</text>
     </g>
    </g>
    <g id="ytick_6">
     <g id="line2d_12">
      <g>
       <use xlink:href="#m587de949b7" x="43.78125" y="68.669745" style="stroke: #000000; stroke-width: 0.8"/>
      </g>
     </g>
     <g id="text_13">
      <text style="font-size: 10px; font-family: 'DejaVu Sans', 'Bitstream Vera Sans', 'Computer Modern Sans Serif', 'Lucida Grande', 'Verdana', 'Geneva', 'Lucid', 'Arial', 'Helvetica', 'Avant Garde', sans-serif; text-anchor: end" x="36.78125" y="72.468964" transform="rotate(-0 36.78125 72.468964)">1.0</text>
     </g>
    </g>
    <g id="text_14">
     <text style="font-size: 10px; font-family: 'DejaVu Sans', 'Bitstream Vera Sans', 'Computer Modern Sans Serif', 'Lucida Grande', 'Verdana', 'Geneva', 'Lucid', 'Arial', 'Helvetica', 'Avant Garde', sans-serif; text-anchor: middle" x="14.798438" y="170.157125" transform="rotate(-90 14.798438 170.157125)">Recurrence-free survival</text>
    </g>
   </g>
   <g id="line2d_13">
    <path d="M 60.586539 68.669745 
L 72.723693 68.669745 
L 72.723693 82.201396 
L 75.057761 82.201396 
L 75.057761 95.733046 
L 89.762389 95.733046 
L 89.762389 95.733046 
L 90.229202 95.733046 
L 90.229202 110.392335 
L 93.263491 110.392335 
L 93.263491 110.392335 
L 112.869661 110.392335 
L 112.869661 110.392335 
L 116.60417 110.392335 
L 116.60417 110.392335 
L 117.537797 110.392335 
L 117.537797 110.392335 
L 117.771204 110.392335 
L 117.771204 110.392335 
L 132.475832 110.392335 
L 132.475832 110.392335 
L 164.919377 110.392335 
L 164.919377 110.392335 
L 165.152783 110.392335 
L 165.152783 110.392335 
L 246.845162 110.392335 
L 246.845162 110.392335 
L 263.883858 110.392335 
L 263.883858 191.01842 
L 274.387164 191.01842 
L 274.387164 191.01842 
" clip-path="url(#p45eca5f691)" style="fill: none; stroke: #4c72b0; stroke-width: 1.5; stroke-linecap: square"/>
   </g>
   <g id="line2d_14">
    <path d="M 60.586539 75.83356 
L 60.817612 75.83356 
L 60.817612 75.83356 
L 63.111924 75.83356 
L 63.111924 75.83356 
L 71.790065 75.83356 
L 71.790065 75.83356 
L 72.490286 75.83356 
L 72.490286 78.846036 
L 73.423913 78.846036 
L 73.423913 81.858512 
L 73.65732 81.858512 
L 73.65732 84.919577 
L 73.890727 84.919577 
L 73.890727 88.031659 
L 74.590947 88.031659 
L 74.590947 88.031659 
L 74.824354 88.031659 
L 74.824354 88.031659 
L 75.291167 88.031659 
L 75.291167 88.031659 
L 75.524574 88.031659 
L 75.524574 91.31046 
L 76.458201 91.31046 
L 76.458201 91.31046 
L 77.158422 91.31046 
L 77.158422 94.649979 
L 85.32766 94.649979 
L 85.32766 94.649979 
L 86.961507 94.649979 
L 86.961507 94.649979 
L 88.361948 94.649979 
L 88.361948 98.18987 
L 89.062168 98.18987 
L 89.062168 101.72976 
L 89.528982 101.72976 
L 89.528982 101.72976 
L 89.995795 101.72976 
L 89.995795 101.72976 
L 90.696016 101.72976 
L 90.696016 101.72976 
L 99.332067 101.72976 
L 99.332067 101.72976 
L 100.265694 101.72976 
L 100.265694 101.72976 
L 101.899542 101.72976 
L 101.899542 101.72976 
L 103.299983 101.72976 
L 103.299983 101.72976 
L 104.000203 101.72976 
L 104.000203 101.72976 
L 104.93383 101.72976 
L 104.93383 101.72976 
L 108.668339 101.72976 
L 108.668339 101.72976 
L 114.036695 101.72976 
L 114.036695 106.322051 
L 114.503509 106.322051 
L 114.503509 106.322051 
L 118.704831 106.322051 
L 118.704831 106.322051 
L 119.871865 106.322051 
L 119.871865 106.322051 
L 125.707035 106.322051 
L 125.707035 111.331822 
L 125.940442 111.331822 
L 125.940442 111.331822 
L 129.908357 111.331822 
L 129.908357 116.859845 
L 143.679358 116.859845 
L 143.679358 116.859845 
L 145.78002 116.859845 
L 145.78002 122.592611 
L 146.246833 122.592611 
L 146.246833 122.592611 
L 146.713647 122.592611 
L 146.713647 122.592611 
L 147.413867 122.592611 
L 147.413867 128.803106 
L 147.880681 128.803106 
L 147.880681 135.013602 
L 151.615189 135.013602 
L 151.615189 135.013602 
L 152.082003 135.013602 
L 152.082003 135.013602 
L 156.983546 135.013602 
L 156.983546 135.013602 
L 160.251241 135.013602 
L 160.251241 142.204702 
L 160.484648 142.204702 
L 160.484648 142.204702 
L 164.219156 142.204702 
L 164.219156 149.818808 
L 165.38619 149.818808 
L 165.38619 157.432914 
L 166.786631 157.432914 
L 166.786631 165.04702 
L 171.454767 165.04702 
L 171.454767 172.661126 
L 172.621801 172.661126 
L 172.621801 180.275232 
L 175.656089 180.275232 
L 175.656089 187.889338 
L 179.857412 187.889338 
L 179.857412 187.889338 
L 188.260056 187.889338 
L 188.260056 196.264855 
L 204.598532 196.264855 
L 204.598532 204.640372 
L 225.605144 204.640372 
L 225.605144 204.640372 
L 255.481213 204.640372 
L 255.481213 204.640372 
L 266.451333 204.640372 
L 266.451333 204.640372 
L 268.318587 204.640372 
L 268.318587 204.640372 
L 295.160368 204.640372 
L 295.160368 204.640372 
L 301.228945 204.640372 
L 301.228945 226.975083 
L 310.798624 226.975083 
L 310.798624 226.975083 
L 322.00215 226.975083 
L 322.00215 226.975083 
" clip-path="url(#p45eca5f691)" style="fill: none; stroke: #c44e52; stroke-width: 1.5; stroke-linecap: square"/>
   </g>
   <g id="line2d_15">
    <path d="M 144.612986 275.704 
L 144.612986 64.61025 
" clip-path="url(#p45eca5f691)" style="fill: none; stroke-dasharray: 2.96,1.28; stroke-dashoffset: 0; stroke: #808080; stroke-width: 0.8"/>
   </g>
   <g id="line2d_16">
    <path d="M 228.639432 275.704 
L 228.639432 64.61025 
" clip-path="url(#p45eca5f691)" style="fill: none; stroke-dasharray: 2.96,1.28; stroke-dashoffset: 0; stroke: #808080; stroke-width: 0.8"/>
   </g>
   <g id="line2d_17">
    <path d="M 312.665878 275.704 
L 312.665878 64.61025 
" clip-path="url(#p45eca5f691)" style="fill: none; stroke-dasharray: 2.96,1.28; stroke-dashoffset: 0; stroke: #808080; stroke-width: 0.8"/>
   </g>
   <g id="line2d_18">
    <path d="M 396.692324 275.704 
L 396.692324 64.61025 
" clip-path="url(#p45eca5f691)" style="fill: none; stroke-dasharray: 2.96,1.28; stroke-dashoffset: 0; stroke: #808080; stroke-width: 0.8"/>
   </g>
   <g id="patch_3">
    <path d="M 43.78125 275.704 
L 43.78125 64.61025 
" style="fill: none; stroke: #000000; stroke-width: 0.8; stroke-linejoin: miter; stroke-linecap: square"/>
   </g>
   <g id="patch_4">
    <path d="M 413.497614 275.704 
L 413.497614 64.61025 
" style="fill: none; stroke: #000000; stroke-width: 0.8; stroke-linejoin: miter; stroke-linecap: square"/>
   </g>
   <g id="patch_5">
    <path d="M 43.78125 275.704 
L 413.497614 275.704 
" style="fill: none; stroke: #000000; stroke-width: 0.8; stroke-linejoin: miter; stroke-linecap: square"/>
   </g>
   <g id="patch_6">
    <path d="M 43.78125 64.61025 
L 413.497614 64.61025 
" style="fill: none; stroke: #000000; stroke-width: 0.8; stroke-linejoin: miter; stroke-linecap: square"/>
   </g>
   <g id="text_15">
    <g id="patch_7">
     <path d="M 316.517036 99.002062 
L 406.103286 99.002062 
Q 408.503286 99.002062 408.503286 96.602062 
L 408.503286 70.943062 
Q 408.503286 68.543062 406.103286 68.543062 
L 316.517036 68.543062 
Q 314.117036 68.543062 314.117036 70.943062 
L 314.117036 96.602062 
Q 314.117036 99.002062 316.517036 99.002062 
z
" style="fill: #ffffff; opacity: 0.85; stroke: #b2b2b2; stroke-linejoin: miter"/>
    </g>
    <text style="font-size: 8px; font-family: 'DejaVu Sans', 'Bitstream Vera Sans', 'Computer Modern Sans Serif', 'Lucida Grande', 'Verdana', 'Geneva', 'Lucid', 'Arial', 'Helvetica', 'Avant Garde', sans-serif" transform="translate(330.814536 77.021813)">log-rank p = 0.435</text>
    <text style="font-size: 8px; font-family: 'DejaVu Sans', 'Bitstream Vera Sans', 'Computer Modern Sans Serif', 'Lucida Grande', 'Verdana', 'Geneva', 'Lucid', 'Arial', 'Helvetica', 'Avant Garde', sans-serif" transform="translate(316.517036 85.980063)">HR = 1.52 (0.53–4.36)</text>
    <text style="font-size: 8px; font-family: 'DejaVu Sans', 'Bitstream Vera Sans', 'Computer Modern Sans Serif', 'Lucida Grande', 'Verdana', 'Geneva', 'Lucid', 'Arial', 'Helvetica', 'Avant Garde', sans-serif" transform="translate(341.050786 94.938312)">C-index = 0.517</text>
   </g>
   <g id="text_16">
    <text style="font-size: 7px; font-family: 'DejaVu Sans', 'Bitstream Vera Sans', 'Computer Modern Sans Serif', 'Lucida Grande', 'Verdana', 'Geneva', 'Lucid', 'Arial', 'Helvetica', 'Avant Garde', sans-serif; text-anchor: middle; fill: #666666" x="144.612986" y="67.213964" transform="rotate(-0 144.612986 67.213964)">12mo</text>
   </g>
   <g id="text_17">
    <text style="font-size: 7px; font-family: 'DejaVu Sans', 'Bitstream Vera Sans', 'Computer Modern Sans Serif', 'Lucida Grande', 'Verdana', 'Geneva', 'Lucid', 'Arial', 'Helvetica', 'Avant Garde', sans-serif; text-anchor: middle; fill: #666666" x="228.639432" y="67.213964" transform="rotate(-0 228.639432 67.213964)">24mo</text>
   </g>
   <g id="text_18">
    <text style="font-size: 7px; font-family: 'DejaVu Sans', 'Bitstream Vera Sans', 'Computer Modern Sans Serif', 'Lucida Grande', 'Verdana', 'Geneva', 'Lucid', 'Arial', 'Helvetica', 'Avant Garde', sans-serif; text-anchor: middle; fill: #666666" x="312.665878" y="67.213964" transform="rotate(-0 312.665878 67.213964)">36mo</text>
   </g>
   <g id="text_19">
    <text style="font-size: 7px; font-family: 'DejaVu Sans', 'Bitstream Vera Sans', 'Computer Modern Sans Serif', 'Lucida Grande', 'Verdana', 'Geneva', 'Lucid', 'Arial', 'Helvetica', 'Avant Garde', sans-serif; text-anchor: middle; fill: #666666" x="396.692324" y="67.213964" transform="rotate(-0 396.692324 67.213964)">48mo</text>
   </g>
   <g id="text_20">
    <text style="font-size: 11px; font-family: 'DejaVu Sans', 'Bitstream Vera Sans', 'Computer Modern Sans Serif', 'Lucida Grande', 'Verdana', 'Geneva', 'Lucid', 'Arial', 'Helvetica', 'Avant Garde', sans-serif; text-anchor: middle" x="228.639432" y="58.61025" transform="rotate(-0 228.639432 58.61025)">LASSO/All features · soramic</text>
   </g>
   <g id="legend_1">
    <g id="patch_8">
     <path d="M 49.38125 271.704 
L 123.16125 271.704 
Q 124.76125 271.704 124.76125 270.104 
L 124.76125 247.419 
Q 124.76125 245.819 123.16125 245.819 
L 49.38125 245.819 
Q 47.78125 245.819 47.78125 247.419 
L 47.78125 270.104 
Q 47.78125 271.704 49.38125 271.704 
z
" style="fill: #ffffff; opacity: 0.8; stroke: #cccccc; stroke-linejoin: miter"/>
    </g>
    <g id="line2d_19">
     <path d="M 50.98125 252.29775 
L 58.98125 252.29775 
L 58.98125 252.29775 
L 66.98125 252.29775 
L 66.98125 252.29775 
" style="fill: none; stroke: #4c72b0; stroke-width: 1.5; stroke-linecap: square"/>
    </g>
    <g id="text_21">
     <text style="font-size: 8px; font-family: 'DejaVu Sans', 'Bitstream Vera Sans', 'Computer Modern Sans Serif', 'Lucida Grande', 'Verdana', 'Geneva', 'Lucid', 'Arial', 'Helvetica', 'Avant Garde', sans-serif; text-anchor: start" x="73.38125" y="255.09775" transform="rotate(-0 73.38125 255.09775)">low (n=15)</text>
    </g>
    <g id="line2d_20">
     <path d="M 50.98125 264.04025 
L 58.98125 264.04025 
L 58.98125 264.04025 
L 66.98125 264.04025 
L 66.98125 264.04025 
" style="fill: none; stroke: #c44e52; stroke-width: 1.5; stroke-linecap: square"/>
    </g>
    <g id="text_22">
     <text style="font-size: 8px; font-family: 'DejaVu Sans', 'Bitstream Vera Sans', 'Computer Modern Sans Serif', 'Lucida Grande', 'Verdana', 'Geneva', 'Lucid', 'Arial', 'Helvetica', 'Avant Garde', sans-serif; text-anchor: start" x="73.38125" y="266.84025" transform="rotate(-0 73.38125 266.84025)">high (n=85)</text>
    </g>
   </g>
  </g>
  <g id="text_23">
   <text style="font-size: 11px; font-family: 'DejaVu Sans', 'Bitstream Vera Sans', 'Computer Modern Sans Serif', 'Lucida Grande', 'Verdana', 'Geneva', 'Lucid', 'Arial', 'Helvetica', 'Avant Garde', sans-serif; text-anchor: middle" x="212.06125" y="15.558281" transform="rotate(-0 212.06125 15.558281)">Restricted-time KM — LASSO/All features + median_frozen</text>
  </g>
 </g>
 <defs>
  <clipPath id="p45eca5f691">
   <rect x="43.78125" y="64.61025" width="369.716364" height="211.09375"/>
  </clipPath>
 </defs>
</svg>
